<svg width="100" height="100" viewBox="0 0 100 100" fill="none" xmlns="http://www.w3.org/2000/svg">
<path d="M44.8914 10.9785C47.7108 8.56774 52.328 8.56774 55.1882 10.9785L61.6441 16.5355C62.8699 17.5978 65.1581 18.4559 66.7925 18.4559H73.7387C78.0699 18.4559 81.6248 22.0107 81.6248 26.3419V33.2882C81.6248 34.8817 82.4828 37.2107 83.5452 38.4366L89.1022 44.8925C91.5129 47.7118 91.5129 52.329 89.1022 55.1892L83.5452 61.6452C82.4828 62.871 81.6248 65.1591 81.6248 66.7935V73.7398C81.6248 78.071 78.0699 81.6258 73.7387 81.6258H66.7925C65.199 81.6258 62.8699 82.4839 61.6441 83.5462L55.1882 89.1032C52.3689 91.514 47.7516 91.514 44.8914 89.1032L38.4355 83.5462C37.2097 82.4839 34.9215 81.6258 33.2871 81.6258H26.2183C21.8871 81.6258 18.3323 78.071 18.3323 73.7398V66.7527C18.3323 65.1591 17.4742 62.871 16.4527 61.6452L10.9366 55.1484C8.56671 52.329 8.56671 47.7527 10.9366 44.9333L16.4527 38.4366C17.4742 37.2107 18.3323 34.9226 18.3323 33.329V26.3011C18.3323 21.9699 21.8871 18.415 26.2183 18.415H33.2871C34.8807 18.415 37.2097 17.557 38.4355 16.4946L44.8914 10.9785Z" fill="#C85100"/>
<path d="M35.209 49.9999L45.0563 59.8881L64.7918 40.1118" stroke="white" stroke-width="4.90323" stroke-linecap="round" stroke-linejoin="round"/>
</svg>
