<svg width="136" height="136" viewBox="0 0 136 136" fill="none" xmlns="http://www.w3.org/2000/svg">
<circle cx="67.9999" cy="67.9999" r="21.7586" fill="#FFF1E7" stroke="#C85100" stroke-width="0.353798"/>
<circle cx="68" cy="68" r="15.9209" fill="#FFD8BE"/>
<path d="M63.4299 33.0865C65.9525 30.9295 70.0837 30.9295 72.6429 33.0865L78.4192 38.0585C79.516 39.0091 81.5633 39.7768 83.0256 39.7768H89.2407C93.116 39.7768 96.2966 42.9575 96.2966 46.8327V53.0478C96.2966 54.4736 97.0644 56.5575 98.0149 57.6542L102.987 63.4306C105.144 65.9532 105.144 70.0843 102.987 72.6435L98.0149 78.4198C97.0644 79.5166 96.2966 81.5639 96.2966 83.0263V89.2413C96.2966 93.1166 93.116 96.2972 89.2407 96.2972H83.0256C81.5998 96.2972 79.516 97.065 78.4192 98.0155L72.6429 102.988C70.1203 105.145 65.9891 105.145 63.4299 102.988L57.6536 98.0155C56.5568 97.065 54.5095 96.2972 53.0472 96.2972H46.7224C42.8472 96.2972 39.6665 93.1166 39.6665 89.2413V82.9897C39.6665 81.5639 38.8988 79.5166 37.9848 78.4198L33.0493 72.6069C30.9289 70.0843 30.9289 65.9897 33.0493 63.4671L37.9848 57.6542C38.8988 56.5575 39.6665 54.5101 39.6665 53.0843V46.7962C39.6665 42.9209 42.8472 39.7403 46.7224 39.7403H53.0472C54.473 39.7403 56.5568 38.9725 57.6536 38.022L63.4299 33.0865Z" fill="#FFF1E7" stroke="#C85100" stroke-width="2.19355" stroke-linecap="round" stroke-linejoin="round"/>
<path d="M67.9999 71.763V71.0694C67.9999 68.8229 69.3875 67.6336 70.775 66.6756C72.1295 65.7506 73.4837 64.5613 73.4837 62.381C73.4837 59.3417 71.0392 56.897 67.9999 56.897C64.9607 56.897 62.5161 59.3417 62.5161 62.381" stroke="#C85100" stroke-width="4.95533" stroke-linecap="round" stroke-linejoin="round"/>
<path d="M67.9855 79.6581H68.0153" stroke="#C85100" stroke-width="4.95533" stroke-linecap="round" stroke-linejoin="round"/>
</svg>
