<svg width="138" height="96" viewBox="0 0 138 96" fill="none" xmlns="http://www.w3.org/2000/svg">
<g clip-path="url(#clip0_524_7134)">
<path d="M103.498 9.74751C102.463 10.3191 100.793 8.05822 100.415 9.16412C100.037 10.27 100.953 14.7323 101.426 15.8025C101.661 16.3344 101.993 16.8209 102.224 17.3547C102.454 17.8885 102.578 18.5023 102.374 19.0466C102.019 19.9937 100.849 20.379 100.268 21.2114C99.5923 22.181 99.8653 23.4869 100.181 24.6206C100.454 25.5977 100.744 26.5838 101.268 27.456C101.793 28.3282 102.583 29.0877 103.571 29.3763C104.829 29.7438 106.173 29.3071 107.386 28.8141C108.551 28.3401 109.705 27.8028 110.696 27.036C111.688 26.2692 112.515 25.2514 112.862 24.0588C113.296 22.5629 112.933 20.9258 112.18 19.5574C111.428 18.1889 110.314 17.0488 109.172 15.9725C107.247 14.1597 105.2 12.4737 103.046 10.9295L103.498 9.74751Z" fill="#151812"/>
<path d="M118.883 86.5044L117.906 95.4674L117.862 95.8772L106.811 95.8348L106.753 95.4236L105.583 87.2107L118.883 86.5044Z" fill="#FFB6B6"/>
<path d="M101.987 95.4052C101.987 95.5405 101.986 95.6771 101.985 95.815L90.5133 95.7713L90.4758 95.3601L89.7686 87.5638L101.63 86.1499C101.63 86.1499 102.012 90.2851 101.987 95.4052Z" fill="#FFB6B6"/>
<path d="M100.711 25.6254C102.533 27.8822 105.746 28.5361 108.339 27.1928C112.04 25.2754 117.093 23.0777 117.986 24.8338C119.423 27.6611 119.423 30.4049 119.423 30.4049L120.861 63.3556C120.861 63.3556 121.58 76.66 112.594 75.4857C103.608 74.3113 89.5889 79.2591 89.5889 79.2591L91.0208 64.6616L94.8444 59.1579L96.3934 43.368L93.7226 30.6651L96.9577 29.2514C96.9577 29.2514 97.3171 26.7775 98.3955 26.7775C99.4738 26.7775 99.7342 24.401 100.682 25.5893C100.692 25.6012 100.702 25.6132 100.711 25.6254V25.6254Z" fill="#C85100"/>
<path d="M120.206 95.8861L117.862 95.8765L106.812 95.8342L105.373 95.8287L105.29 95.4175L103.067 84.3836L102.72 95.408L102.707 95.8178L101.985 95.8151L90.5133 95.7714L89.6907 95.7673L89.6879 95.3574L89.6393 87.5652L89.5948 80.3495L89.5879 79.258L89.5893 79.2566L93.024 72.4111L94.0258 70.4139L94.2314 70.004L96.2378 66.0055L114.392 63.5342L114.67 63.4959L119.603 62.8252L119.639 64.8129L119.66 65.9413L119.733 70.004L119.742 70.4139L119.75 70.8824L120.198 95.4749L120.206 95.8861Z" fill="#151812"/>
<path d="M106.081 24.5773C110.227 24.5773 113.588 21.2729 113.588 17.1966C113.588 13.1204 110.227 9.81592 106.081 9.81592C101.935 9.81592 98.5742 13.1204 98.5742 17.1966C98.5742 21.2729 101.935 24.5773 106.081 24.5773Z" fill="#FFB6B6"/>
<path d="M114.545 28.7551C112.793 31.2125 111.897 34.2487 112.039 37.2465C110.052 36.3003 108.712 34.3013 108.255 32.178C107.799 30.0546 108.147 27.825 108.88 25.778C108.888 25.7576 108.895 25.7371 108.903 25.7167C110.016 22.6441 108.981 19.2101 106.292 17.3001C104.478 16.0118 102.905 14.3955 101.698 12.5428C101.016 11.4969 100.437 10.1848 100.946 9.04796C101.415 8.00038 102.627 7.51076 103.743 7.18314C106.29 6.43506 108.997 6.00939 111.611 6.48276C114.226 6.95612 116.742 8.43439 117.978 10.7487C119.214 13.063 118.89 16.2214 116.884 17.937C117.517 18.1381 117.965 18.7973 117.911 19.4488C117.857 20.1003 117.307 20.6801 116.65 20.7783C117.079 20.7634 117.332 21.3187 117.179 21.7128C117.026 22.107 116.632 22.3518 116.256 22.5547C115.72 22.8437 115.126 23.1459 115.124 23.9027C115.123 24.2062 115.233 24.5007 115.412 24.7473C115.848 25.345 116.552 25.6142 117.229 25.8669C115.797 26.2817 114.654 27.5404 114.398 28.9868L114.545 28.7551Z" fill="#151812"/>
<path d="M82.5338 25.9005C82.329 23.7873 83.2719 21.9705 84.6397 21.8426C86.0075 21.7146 87.282 23.3238 87.4867 25.4377C87.5802 26.2811 87.467 27.1341 87.1564 27.9256L87.9094 36.8898L83.6233 37.1476L83.336 28.2831C82.8789 27.5633 82.6039 26.7463 82.5338 25.9005Z" fill="#FFB6B6"/>
<path d="M105.886 30.1529C105.886 30.1529 98.8839 26.1031 97.4422 26.7105C96.0006 27.318 88.9982 37.645 88.9982 37.645L88.3544 35.7604L83.4375 36.2276C83.4375 36.2276 80.5541 49.3895 86.9387 48.1745C93.3232 46.9596 103.827 35.6201 103.827 35.6201L105.886 30.1529H105.886Z" fill="#C85100"/>
<path d="M40.9189 51.912C40.9189 51.912 44.8727 49.633 45.9374 51.7462C47.0021 53.8594 56.8387 79.0686 56.8387 79.0686L50.5001 80.2821L40.9189 51.912V51.912Z" fill="#C85100"/>
<path d="M32.2953 36.8525L32.4817 37.1134C31.7869 37.5078 31.6844 38.5027 32.0102 39.2247C32.336 39.9467 32.9667 40.4818 33.5122 41.0618C34.0577 41.6418 34.555 42.3601 34.5044 43.1488C34.4477 44.0358 33.7121 44.7663 33.6097 45.6496C33.4616 46.9358 34.6797 48.0643 34.6192 49.3577C34.5735 50.3454 33.801 51.139 33.0346 51.7797C32.4348 52.282 31.7819 52.7868 31.3771 53.4347C31.2661 53.6131 31.1735 53.8036 31.1056 54.0075C30.8033 54.9272 31.0883 55.9295 31.4722 56.8189C31.8547 57.7083 32.3422 58.5771 32.4619 59.5357C32.5804 60.4943 32.2126 61.6009 31.3154 61.994C33.1024 61.8435 34.8463 61.2308 36.326 60.2346C36.4593 60.1448 36.5889 60.0526 36.7172 59.9579C38.8153 58.4048 40.2888 56.1612 41.7068 53.9747C41.8241 53.7951 41.9401 53.6143 42.0573 53.4347C42.372 52.9482 42.688 52.4628 43.0039 51.9763C43.9048 50.5857 44.8169 49.1745 45.3081 47.5995C45.7598 46.1471 45.8363 44.6122 46.0214 43.1039C46.1115 42.365 46.23 41.6284 46.2522 40.8846C46.288 39.7404 46.0893 38.5913 45.6845 37.5175C45.2883 36.4618 44.6935 35.4778 43.9271 34.6405C43.1421 33.7826 42.182 33.085 41.1256 32.5826C40.1025 32.096 38.9893 31.7939 37.8551 31.7102C37.475 31.6823 37.0961 31.6774 36.7172 31.6944C35.2227 31.7551 33.7454 32.1264 32.3089 32.5826C31.2525 33.085 30.2923 33.7827 29.5074 34.6405C28.741 35.4778 28.1462 36.4618 27.75 37.5175C29.1273 36.7943 30.7638 36.5455 32.2953 36.8525Z" fill="#151812"/>
<path d="M43.0049 50.1267L35.9187 47.3945L35.7393 50.1267L29.5272 51.083L26.6094 64.0609L29.2493 72.1209L48.9796 72.6673L48.2848 69.9351C48.2848 69.9351 51.4806 66.3833 49.5353 60.6457L49.3193 59.1854C48.7545 55.3675 46.4227 52.0223 43.0049 50.1267L43.0049 50.1267Z" fill="#C85100"/>
<path d="M39.0617 47.2726C42.5378 47.2726 45.3558 44.502 45.3558 41.0843C45.3558 37.6666 42.5378 34.896 39.0617 34.896C35.5855 34.896 32.7676 37.6666 32.7676 41.0843C32.7676 44.502 35.5855 47.2726 39.0617 47.2726Z" fill="#F9D2DD"/>
<path d="M27.1818 40.8846C27.2041 41.6284 27.3225 42.365 27.4126 43.1039C27.5977 44.6122 27.6743 46.1471 28.126 47.5995C28.6171 49.1745 29.5292 50.5857 30.4301 51.9763C30.746 52.4628 31.062 52.9482 31.3767 53.4347C31.4939 53.6143 31.6099 53.7951 31.7272 53.9747C33.1452 56.1612 34.6188 58.4048 36.7168 59.9579C36.8451 60.0526 36.9747 60.1448 37.108 60.2346C38.5877 61.2308 40.3316 61.8435 42.1186 61.994C41.2214 61.6009 40.8536 60.4943 40.9721 59.5357C41.0918 58.5771 41.5793 57.7083 41.9619 56.8189C42.3457 55.9295 42.6308 54.9272 42.3284 54.0075C42.2605 53.8036 42.168 53.6131 42.0569 53.4347C41.6521 52.7868 40.9992 52.282 40.3995 51.7797C39.6331 51.139 38.8605 50.3454 38.8148 49.3577C38.7543 48.0643 37.9139 48.4975 37.7658 47.2113C37.6634 46.3279 36.465 44.8221 36.4082 43.9351C36.3577 43.1464 36.8501 41.2389 37.3956 40.6589C37.9411 40.0789 37.44 38.3474 37.7658 37.6255C38.0916 36.9035 41.6472 37.5078 40.9523 37.1134L41.1387 36.8525C42.6703 36.5455 44.3067 36.7943 45.684 37.5175C45.9839 37.674 46.2702 37.8524 46.5417 38.0538C47.1971 36.8768 46.4196 35.3831 45.3619 34.535C44.3265 33.7026 43.0504 33.2221 41.7841 32.7986C41.5657 32.7258 41.346 32.653 41.1251 32.5826C39.6886 32.1264 38.2113 31.7551 36.7168 31.6944C36.3379 31.6774 35.959 31.6823 35.5789 31.7102C34.4447 31.7939 33.3315 32.096 32.3085 32.5826C31.252 33.085 30.2919 33.7827 29.507 34.6405C28.7406 35.4778 28.1457 36.4618 27.7496 37.5175C27.3448 38.5913 27.1461 39.7404 27.1818 40.8846H27.1818Z" fill="#151812"/>
<path d="M137.05 90.3547L128.277 72.2306C127.623 70.8782 126.215 70.0039 124.691 70.0039H13.8794C13.4583 70.0039 13.0485 70.0681 12.6622 70.1911C11.6854 70.4984 10.8545 71.1706 10.3627 72.094L0.958832 89.7194C0.308578 90.9366 0.351659 92.3683 1.07417 93.5459C1.79528 94.7248 3.06109 95.4324 4.46028 95.4379L89.6907 95.7671L90.5132 95.7712L101.985 95.8149L102.707 95.8177L105.373 95.8286L106.812 95.8341L117.862 95.8764L120.206 95.886L133.449 95.9365H133.465C134.833 95.9365 136.085 95.2589 136.818 94.1237C137.555 92.983 137.641 91.5732 137.05 90.3547Z" fill="#FFF1E7"/>
<path d="M39.8809 83.1184L60.8616 75.6048L50.3712 71.4565L29.46 76.8343L39.8809 83.1184Z" fill="#FBFBFB"/>
<path d="M71.8377 71.7793L69.4756 79.1562L97.1257 80.7955L94.7636 72.4623L71.8377 71.7793Z" fill="#FBFBFB"/>
<path d="M39.2452 73.0418C41.1893 73.2314 42.6656 74.3712 42.5428 75.5876C42.4199 76.804 40.7444 77.6361 38.7997 77.4462C38.0218 77.3809 37.2712 77.1333 36.6105 76.7242L28.3838 75.8188L28.8982 72.0322L36.9537 73.3268C37.6834 73.0532 38.4692 72.9555 39.2452 73.0418H39.2452Z" fill="#F9D2DD"/>
<path d="M30.9863 51.8348L29.5273 51.0835C29.5273 51.0835 27.2347 51.1518 25.7063 52.6545C24.1779 54.1572 11.8118 71.37 11.8118 71.37C11.8118 71.37 8.75502 76.0148 16.397 76.6978C24.039 77.3809 32.5147 77.3809 32.5147 77.3809L33.2094 71.7799L21.6769 70.5504L29.7527 60.0314L30.9863 51.8348Z" fill="#C85100"/>
<path d="M112.342 70.2747C110.693 71.4789 108.724 71.6183 107.944 70.5861C107.165 69.5539 107.87 67.7413 109.521 66.5369C110.173 66.0469 110.935 65.7176 111.744 65.5766L118.798 60.561L121.121 63.8659L113.92 68.4595C113.549 69.1798 113.008 69.8023 112.342 70.2747Z" fill="#FFB6B6"/>
<path d="M116.787 29.4272C116.787 29.4272 122.478 29.604 123.556 33.4915C124.634 37.379 126.791 45.6651 126.432 57.17C126.432 57.17 128.229 64.5917 123.556 64.2383L117.086 67.0655L112.772 61.411L116.367 57.17L116.787 29.4272Z" fill="#C85100"/>
<path d="M52.1798 37.086L52.1953 37.0517L52.1741 37.0207C51.5482 36.1084 51.2103 35.0349 51.2025 33.9348C51.2026 31.985 52.2921 30.2133 54.0647 28.9265C55.8373 27.6397 58.2891 26.8415 60.9991 26.8415C63.7091 26.8415 66.1596 27.6397 67.9309 28.9265C69.7023 30.2133 70.7905 31.9851 70.7905 33.935C70.7905 35.885 69.7022 37.6574 67.9309 38.9449C66.1596 40.2323 63.7091 41.0311 60.9991 41.0311C58.3689 41.0311 55.9901 40.2734 54.2344 39.0613L54.2096 39.0442L54.1804 39.0515L50.9156 39.8655L52.1798 37.086Z" fill="#FEFBF7" stroke="#C85100" stroke-width="0.133229"/>
<path d="M64.5459 33.9353C64.5459 34.136 64.6064 34.3323 64.7199 34.4992C64.8333 34.6661 64.9945 34.7961 65.1831 34.873C65.3717 34.9498 65.5793 34.9699 65.7795 34.9307C65.9798 34.8916 66.1637 34.7949 66.3081 34.653C66.4524 34.511 66.5507 34.3302 66.5906 34.1333C66.6304 33.9364 66.61 33.7324 66.5318 33.5469C66.4537 33.3615 66.3214 33.203 66.1516 33.0915C65.9819 32.9799 65.7823 32.9204 65.5782 32.9204C65.3044 32.9204 65.0418 33.0273 64.8482 33.2177C64.6547 33.408 64.5459 33.6661 64.5459 33.9353Z" fill="#EEBE9D"/>
<path d="M59.9746 33.9353C59.9746 34.136 60.0351 34.3323 60.1486 34.4992C60.262 34.6661 60.4232 34.7961 60.6118 34.873C60.8005 34.9498 61.008 34.9699 61.2082 34.9307C61.4085 34.8916 61.5924 34.7949 61.7368 34.653C61.8811 34.511 61.9795 34.3302 62.0193 34.1333C62.0591 33.9364 62.0387 33.7324 61.9605 33.5469C61.8824 33.3615 61.7501 33.203 61.5804 33.0915C61.4106 32.9799 61.211 32.9204 61.0069 32.9204C60.7331 32.9204 60.4705 33.0273 60.2769 33.2177C60.0834 33.408 59.9746 33.6661 59.9746 33.9353Z" fill="#EEBE9D"/>
<path d="M55.4033 33.9353C55.4033 34.136 55.4639 34.3323 55.5773 34.4992C55.6907 34.6661 55.8519 34.7961 56.0405 34.873C56.2292 34.9498 56.4367 34.9699 56.637 34.9307C56.8372 34.8916 57.0211 34.7949 57.1655 34.653C57.3099 34.511 57.4082 34.3302 57.448 34.1333C57.4878 33.9364 57.4674 33.7324 57.3893 33.5469C57.3111 33.3615 57.1788 33.203 57.0091 33.0915C56.8393 32.9799 56.6397 32.9204 56.4356 32.9204C56.1618 32.9204 55.8992 33.0273 55.7057 33.2177C55.5121 33.408 55.4033 33.6661 55.4033 33.9353Z" fill="#EEBE9D"/>
<path d="M92.9809 16.5305L92.9596 16.5615L92.9752 16.5957L94.2369 19.3729L90.9745 18.5612L90.9453 18.554L90.9206 18.5711C89.1649 19.7832 86.7835 20.5409 84.1559 20.5409C81.4458 20.5409 78.9954 19.7421 77.2241 18.4546C75.4527 17.1672 74.3645 15.3947 74.3645 13.4448C74.3645 11.4949 75.4527 9.72307 77.2241 8.43624C78.9954 7.14946 81.4458 6.35128 84.1559 6.35128C86.8659 6.35128 89.3177 7.14946 91.0903 8.43625C92.8629 9.72306 93.9524 11.4948 93.9524 13.4446C93.9446 14.5447 93.6067 15.6182 92.9809 16.5305Z" fill="#FEFBF7" stroke="#C85100" stroke-width="0.133229"/>
<path d="M80.6065 13.4446C80.6065 13.6453 80.546 13.8415 80.4325 14.0084C80.3191 14.1753 80.1579 14.3054 79.9693 14.3822C79.7806 14.4591 79.5731 14.4792 79.3729 14.44C79.1726 14.4008 78.9887 14.3042 78.8443 14.1622C78.7 14.0203 78.6017 13.8395 78.5618 13.6426C78.522 13.4457 78.5424 13.2417 78.6206 13.0562C78.6987 12.8708 78.831 12.7122 79.0008 12.6007C79.1705 12.4892 79.3701 12.4297 79.5742 12.4297C79.848 12.4297 80.1106 12.5366 80.3042 12.7269C80.4977 12.9173 80.6065 13.1754 80.6065 13.4446Z" fill="#EEBE9D"/>
<path d="M85.1788 13.4446C85.1788 13.6453 85.1182 13.8415 85.0048 14.0084C84.8914 14.1753 84.7302 14.3054 84.5415 14.3822C84.3529 14.4591 84.1454 14.4792 83.9451 14.44C83.7449 14.4008 83.561 14.3042 83.4166 14.1622C83.2722 14.0203 83.1739 13.8395 83.1341 13.6426C83.0943 13.4457 83.1147 13.2417 83.1928 13.0562C83.271 12.8708 83.4033 12.7122 83.573 12.6007C83.7428 12.4892 83.9423 12.4297 84.1465 12.4297C84.4203 12.4297 84.6828 12.5366 84.8764 12.7269C85.07 12.9173 85.1788 13.1754 85.1788 13.4446Z" fill="#EEBE9D"/>
<path d="M89.7471 13.4446C89.7471 13.6453 89.6866 13.8415 89.5732 14.0084C89.4597 14.1753 89.2985 14.3054 89.1099 14.3822C88.9213 14.4591 88.7137 14.4792 88.5135 14.44C88.3133 14.4008 88.1293 14.3042 87.985 14.1622C87.8406 14.0203 87.7423 13.8395 87.7025 13.6426C87.6626 13.4457 87.6831 13.2417 87.7612 13.0562C87.8393 12.8708 87.9716 12.7122 88.1414 12.6007C88.3111 12.4892 88.5107 12.4297 88.7149 12.4297C88.9886 12.4297 89.2512 12.5366 89.4448 12.7269C89.6384 12.9173 89.7471 13.1754 89.7471 13.4446Z" fill="#EEBE9D"/>
</g>
<defs>
<clipPath id="clip0_524_7134">
<rect width="137" height="95.9" fill="white" transform="translate(0.5)"/>
</clipPath>
</defs>
</svg>
