<svg width="140" height="104" viewBox="0 0 140 104" fill="none" xmlns="http://www.w3.org/2000/svg">
<path d="M132.609 92.3342H7.39127V92.5429H132.609V92.3342Z" fill="#DADAF7"/>
<path opacity="0.9977" d="M58.2206 11.8143L58.2207 11.8143L100.015 11.7935C100.015 11.7935 100.015 11.7935 100.015 11.7935C104.883 11.7936 108.883 15.8079 108.883 20.746L108.903 83.3389C108.903 88.2564 104.904 92.2913 100.035 92.2913L58.2412 92.3122C53.3726 92.3122 49.3735 88.2978 49.3735 83.3597L49.3528 20.7668C49.3528 20.7668 49.3528 20.7668 49.3528 20.7668C49.3529 15.849 53.3318 11.8143 58.2206 11.8143Z" fill="#FFFAF5" stroke="#C85100" stroke-width="0.294059"/>
<path d="M94.3831 27.2636L63.8524 27.2844C63.1716 27.2844 62.6146 26.7222 62.6146 26.0351C62.6146 25.3479 63.1716 24.7857 63.8524 24.7857L94.3831 24.7649C95.0639 24.7649 95.6209 25.3271 95.6209 26.0143C95.6209 26.7014 95.0639 27.2636 94.3831 27.2636Z" fill="#EEBE9D"/>
<path d="M94.3831 39.4865L63.8523 39.5073C63.1716 39.5073 62.6146 38.9451 62.6146 38.258C62.6146 37.5708 63.1716 37.0086 63.8523 37.0086L94.3831 36.9878C95.0638 36.9878 95.6208 37.55 95.6208 38.2372C95.6208 38.9243 95.0638 39.4865 94.3831 39.4865Z" fill="#EEBE9D"/>
<path d="M94.3831 51.7094L63.8523 51.7302C63.1716 51.7302 62.6146 51.168 62.6146 50.4809C62.6146 49.7937 63.1716 49.2315 63.8523 49.2315L94.3831 49.2107C95.0638 49.2107 95.6208 49.7729 95.6208 50.4601C95.6208 51.1472 95.0638 51.7094 94.3831 51.7094Z" fill="#EEBE9D"/>
<path d="M94.3831 63.9113L63.8523 63.9321C63.1716 63.9321 62.6146 63.3699 62.6146 62.6828C62.6146 61.9956 63.1716 61.4334 63.8523 61.4334L94.3831 61.4126C95.0638 61.4126 95.6208 61.9748 95.6208 62.662C95.6208 63.3491 95.0638 63.9113 94.3831 63.9113Z" fill="#EEBE9D"/>
<path opacity="0.5329" d="M52.7747 92.4596H53.868C52.6922 92.4596 51.5576 92.1472 50.5261 91.5642C51.0625 92.1264 51.8258 92.4596 52.7747 92.4596Z" fill="#EAEAFF"/>
<path d="M55.8228 92.3115C57.5047 91.8004 59.0008 90.6512 60.1672 89.0719C61.7735 86.8968 62.7616 83.8982 62.7616 80.5905C62.7616 79.4177 62.6497 78.2806 62.4075 77.1975L96.054 77.1768H108.823H112.665C112.896 78.2574 113.029 79.3945 113.029 80.5696C113.029 86.3607 109.936 91.1307 105.921 92.1083L105.921 92.1081L105.913 92.1104C105.515 92.2312 105.096 92.2915 104.698 92.2915H104.697L55.8228 92.3115Z" fill="#FFFAF5" stroke="#C85100" stroke-width="0.294059"/>
<path d="M107.879 64.0169L107.879 64.0169L107.877 64.0169L107.87 64.0172L107.839 64.0189C107.811 64.0206 107.769 64.0236 107.716 64.0287C107.609 64.0388 107.455 64.0573 107.268 64.0905C106.893 64.157 106.391 64.2822 105.875 64.5165C104.847 64.9838 103.773 65.8798 103.544 67.6164L103.544 67.6174C103.409 68.584 103.606 69.3643 104.011 69.9951C104.417 70.6286 105.038 71.1208 105.766 71.4956C107.223 72.2466 109.075 72.51 110.35 72.51H110.377H110.404H110.431H110.458H110.486H110.513H110.54H110.567H110.595H110.622H110.65H110.677H110.705H110.733H110.76H110.788H110.816H110.844H110.872H110.9H110.928H110.956H110.984H111.012H111.04H111.068H111.097H111.125H111.153H111.182H111.21H111.239H111.267H111.296H111.325H111.353H111.382H111.411H111.44H111.468H111.497H111.526H111.555H111.584H111.613H111.642H111.672H111.701H111.73H111.759H111.789H111.818H111.847H111.877H111.906H111.936H111.965H111.995H112.025H112.054H112.084H112.114H112.143H112.173H112.203H112.233H112.263H112.293H112.323H112.353H112.383H112.413H112.443H112.473H112.503H112.534H112.564H112.594H112.625H112.655H112.685H112.716H112.746H112.777H112.807H112.838H112.868H112.899H112.929H112.96H112.991H113.021H113.052H113.083H113.114H113.145H113.175H113.206H113.237H113.268H113.299H113.33H113.361H113.392H113.423H113.454H113.485H113.516H113.548H113.579H113.61H113.641H113.672H113.704H113.735H113.766H113.798H113.829H113.86H113.892H113.923H113.955H113.986H114.018H114.049H114.081H114.112H114.144H114.175H114.207H114.238H114.27H114.302H114.333H114.365H114.397H114.428H114.46H114.492H114.523H114.555H114.587H114.619H114.651H114.682H114.714H114.746H114.778H114.81H114.842H114.874H114.905H114.937H114.969H115.001H115.033H115.065H115.097H115.129H115.161H115.193H115.225H115.257H115.289H115.321H115.353H115.385H115.417H115.449H115.481H115.513H115.546H115.578H115.61H115.642H115.674H115.706H115.738H115.77H115.802H115.834H115.867H115.899H115.931H115.963H115.995H116.027H116.059H116.091H116.124H116.156H116.188H116.22H116.252H116.284H116.316H116.349H116.381H116.413H116.445H116.477H116.509H116.541H116.574H116.606H116.638H116.67H116.702H116.734H116.766H116.798H116.83H116.862H116.895H116.927H116.959H116.991H117.023H117.055H117.087H117.119H117.151H117.183H117.215H117.247H117.279H117.311H117.343H117.375H117.407H117.439H117.471H117.503H117.534H117.566H117.598H117.63H117.662H117.694H117.726H117.757H117.789H117.821H117.853H117.885H117.916H117.948H117.98H118.011H118.043H118.075H118.106H118.138H118.17H118.201H118.233H118.265H118.296H118.328H118.359H118.391H118.422H118.454H118.485H118.516H118.548H118.579H118.611H118.642H118.673H118.704H118.736H118.767H118.798H118.829H118.861H118.892H118.923H118.954H118.985H119.016H119.047H119.078H119.109H119.14H119.171H119.202H119.233H119.264H119.295H119.325H119.356H119.387H119.418H119.448H119.479H119.51H119.54H119.571H119.601H119.632H119.662H119.693H119.723H119.754H119.784H119.814H119.845H119.875H119.905H119.935H119.965H119.995H120.026H120.056H120.086H120.116H120.146H120.176H120.205H120.235H120.265H120.295H120.325H120.354H120.384H120.414H120.443H120.473H120.502H120.532H120.561H120.591H120.62H120.649H120.679H120.708H120.737H120.766H120.795H120.825H120.854H120.883H120.912H120.94H120.969H120.998H121.027H121.056H121.084H121.113H121.142H121.17H121.199H121.227H121.256H121.284H121.312H121.341H121.369H121.397H121.425H121.453H121.481H121.509H121.537H121.565H121.593H121.621H121.649H121.676H121.704H121.732H121.759H121.787H121.814H121.842H121.869H121.896H121.924H121.951H121.978H122.005H122.032H122.059H122.086H122.113H122.14H122.167H122.193H122.22H122.247H122.273H122.3H122.326H122.353H122.379H122.405H122.431H122.458H122.484H122.51H122.536H122.562H122.587H122.613H122.639H122.665H122.69H122.716H122.741H122.767H122.792H122.818H122.843H122.868H122.893H122.918H122.943H122.968H122.993H123.018H123.043H123.067H123.092H123.117H123.141H123.165H123.19H123.214H123.238H123.263H123.287H123.311H123.335H123.359H123.382H123.406H123.43H123.453H123.477H123.5H123.524H123.547H123.571H123.594H123.617H123.64H123.663H123.686H123.709H123.731H123.754H123.777H123.799H123.822H123.844H123.867H123.889H123.911H123.933H123.955H123.977H123.999H124.021H124.043H124.064H124.086H124.107H124.129H124.15H124.171H124.193H124.214H124.235H124.256H124.277H124.297H124.318H124.339H124.359H124.38H124.4H124.421H124.441H124.461H124.481H124.501H124.521H124.541H124.56H124.58H124.6H124.619H124.639H124.658H124.677H124.696H124.715H124.734H124.753H124.772H124.791H124.809H124.828H124.846H124.865H124.883H124.901H124.919H124.937H124.955C128.542 72.51 131.01 70.6154 131.873 68.3083C132.734 66.0065 132.011 63.2631 129.149 61.5175C127.348 60.4207 125.683 60.558 124.463 60.9691C123.852 61.1752 123.353 61.4501 123.007 61.6736C122.835 61.7853 122.7 61.8838 122.61 61.954C122.564 61.9891 122.53 62.0171 122.507 62.0361C122.496 62.0456 122.487 62.0528 122.482 62.0575L122.476 62.0627L122.475 62.0639L122.475 62.064L107.879 64.0169ZM107.879 64.0169L107.879 64.0169L108.038 64.0119L108.021 63.8539L108.021 63.8539L108.021 63.8538L108.021 63.8529L108.02 63.849L108.019 63.8323C108.017 63.8174 108.015 63.7949 108.013 63.7653C108.008 63.7062 108.002 63.6188 107.998 63.5072C107.988 63.284 107.983 62.9642 108 62.5797C108.035 61.8099 108.161 60.7854 108.524 59.7596C108.886 58.7342 109.482 57.7127 110.455 56.9398C111.426 56.1681 112.784 55.6353 114.685 55.6046L114.682 55.4576L114.685 55.6046C118.48 55.5429 120.354 57.1401 121.288 58.7334C121.758 59.5351 121.994 60.3421 122.112 60.9496C122.171 61.253 122.201 61.5059 122.215 61.6821C122.223 61.7702 122.226 61.8391 122.228 61.8856C122.229 61.9088 122.229 61.9264 122.23 61.938L122.23 61.9508L122.23 61.9537L122.23 61.9542V61.9543V61.9543V62.2821L122.474 62.0641L107.879 64.0169Z" fill="#FFFAF5" stroke="#C85100" stroke-width="0.294059"/>
<path d="M22.9396 16.9151L22.9394 16.9152C20.3868 18.4734 19.7414 20.9202 20.5096 22.9719C21.2797 25.029 23.4838 26.7208 26.6998 26.7208H26.7158H26.7319H26.748H26.7642H26.7806H26.7969H26.8134H26.83H26.8466H26.8633H26.8801H26.897H26.9139H26.9309H26.948H26.9652H26.9824H26.9997H27.0171H27.0346H27.0522H27.0698H27.0875H27.1052H27.1231H27.141H27.159H27.1771H27.1952H27.2134H27.2317H27.2501H27.2685H27.287H27.3056H27.3242H27.3429H27.3617H27.3806H27.3995H27.4185H27.4376H27.4567H27.4759H27.4952H27.5146H27.534H27.5535H27.573H27.5926H27.6123H27.6321H27.6519H27.6718H27.6918H27.7118H27.7319H27.752H27.7723H27.7925H27.8129H27.8333H27.8538H27.8743H27.895H27.9156H27.9364H27.9572H27.978H27.999H28.0199H28.041H28.0621H28.0833H28.1045H28.1258H28.1472H28.1686H28.1901H28.2116H28.2332H28.2549H28.2766H28.2984H28.3203H28.3422H28.3641H28.3861H28.4082H28.4304H28.4525H28.4748H28.4971H28.5195H28.5419H28.5644H28.5869H28.6095H28.6321H28.6548H28.6776H28.7004H28.7233H28.7462H28.7691H28.7922H28.8153H28.8384H28.8616H28.8848H28.9081H28.9315H28.9549H28.9783H29.0018H29.0254H29.049H29.0726H29.0963H29.1201H29.1439H29.1677H29.1917H29.2156H29.2396H29.2637H29.2878H29.3119H29.3361H29.3604H29.3847H29.409H29.4334H29.4578H29.4823H29.5068H29.5314H29.556H29.5807H29.6054H29.6302H29.655H29.6798H29.7047H29.7296H29.7546H29.7796H29.8047H29.8298H29.855H29.8802H29.9054H29.9307H29.956H29.9814H30.0068H30.0322H30.0577H30.0832H30.1088H30.1344H30.16H30.1857H30.2115H30.2372H30.263H30.2889H30.3147H30.3407H30.3666H30.3926H30.4187H30.4447H30.4708H30.497H30.5231H30.5494H30.5756H30.6019H30.6282H30.6546H30.681H30.7074H30.7339H30.7604H30.7869H30.8134H30.84H30.8667H30.8933H30.92H30.9468H30.9735H31.0003H31.0271H31.054H31.0809H31.1078H31.1347H31.1617H31.1887H31.2157H31.2428H31.2699H31.297H31.3242H31.3514H31.3786H31.4058H31.4331H31.4604H31.4877H31.5151H31.5424H31.5698H31.5973H31.6247H31.6522H31.6797H31.7072H31.7348H31.7624H31.79H31.8176H31.8453H31.8729H31.9006H31.9284H31.9561H31.9839H32.0117H32.0395H32.0673H32.0952H32.1231H32.151H32.1789H32.2068H32.2348H32.2628H32.2908H32.3188H32.3469H32.3749H32.403H32.4311H32.4592H32.4874H32.5155H32.5437H32.5719H32.6001H32.6283H32.6566H32.6848H32.7131H32.7414H32.7697H32.798H32.8264H32.8547H32.8831H32.9115H32.9399H32.9683H32.9967H33.0251H33.0536H33.0821H33.1105H33.139H33.1675H33.196H33.2246H33.2531H33.2817H33.3102H33.3388H33.3674H33.396H33.4246H33.4532H33.4818H33.5104H33.5391H33.5677H33.5964H33.625H33.6537H33.6824H33.7111H33.7398H33.7685H33.7972H33.8259H33.8546H33.8834H33.9121H33.9408H33.9696H33.9983H34.0271H34.0559H34.0846H34.1134H34.1422H34.1709H34.1997H34.2285H34.2573H34.2861H34.3148H34.3436H34.3724H34.4012H34.43H34.4588H34.4876H34.5164H34.5452H34.574H34.6028H34.6316H34.6604H34.6892H34.718H34.7468H34.7756H34.8044H34.8331H34.8619H34.8907H34.9195H34.9483H34.977H35.0058H35.0346H35.0633H35.0921H35.1208H35.1496H35.1783H35.2071H35.2358H35.2645H35.2932H35.3219H35.3506H35.3793H35.408H35.4367H35.4654H35.494H35.5227H35.5513H35.58H35.6086H35.6372H35.6658H35.6944H35.723H35.7516H35.7802H35.8088H35.8373H35.8658H35.8944H35.9229H35.9514H35.9799H36.0084H36.0368H36.0653H36.0937H36.1221H36.1505H36.1789H36.2073H36.2357H36.264H36.2924H36.3207H36.349H36.3773H36.4056H36.4338H36.4621H36.4903H36.5185H36.5467H36.5749H36.6031H36.6312H36.6593H36.6874H36.7155H36.7436H36.7716H36.7996H36.8276H36.8556H36.8836H36.9115H36.9394H36.9674H36.9952H37.0231H37.0509H37.0787H37.1065H37.1343H37.1621H37.1898H37.2175H37.2452H37.2728H37.3004H37.3281H37.3556H37.3832H37.4107H37.4382H37.4657H37.4932H37.5206H37.548H37.5754H37.6027H37.63H37.6573H37.6846H37.7118H37.739H37.7662H37.7934H37.8205H37.8476H37.8747H37.9017H37.9287H37.9557H37.9826H38.0096H38.0364H38.0633H38.0901H38.1169H38.1437H38.1704H38.1971H38.2237H38.2504H38.277H38.3035H38.3301H38.3566H38.383H38.4094H38.4358H38.4622H38.4885H38.5148H38.5411H38.5673H38.5934H38.6196H38.6457H38.6718H38.6978H38.7238H38.7498H38.7757H38.8015H38.8274H38.8532H38.879H38.9047H38.9304H38.956H38.9816H39.0072H39.0327H39.0582H39.0837H39.1091H39.1344H39.1597H39.185H39.2103H39.2355H39.2606H39.2857H39.3108H39.3358H39.3608H39.3857H39.4106H39.4355H39.4603H39.485H39.5097H39.5344H39.559H39.5836H39.6081H39.6326H39.657H39.6814H39.7058H39.7301H39.7543H39.7785C40.9089 26.7208 42.5648 26.4835 43.8704 25.8106C44.5219 25.4748 45.0783 25.0346 45.4422 24.4692C45.8043 23.9067 45.982 23.2109 45.8628 22.3487C45.6448 20.8096 44.684 20.012 43.766 19.594C43.3056 19.3844 42.8577 19.2715 42.5243 19.2112C42.3579 19.1811 42.2207 19.1642 42.1256 19.1549C42.0781 19.1502 42.0412 19.1474 42.0165 19.1458L41.9888 19.1442L41.9822 19.1439L41.9808 19.1439L41.9806 19.1439L22.9396 16.9151ZM22.9396 16.9151C24.5446 15.9329 26.0291 16.0546 27.1169 16.4215C27.6623 16.6054 28.1077 16.8511 28.4166 17.0508C28.5709 17.1506 28.6908 17.2386 28.7716 17.3013C28.812 17.3326 28.8426 17.3576 28.8628 17.3745L28.8853 17.3936L28.8905 17.3981L28.8917 17.3991L28.8917 17.3992L28.8918 17.3993L28.8918 17.3993L29.1378 17.6185L29.1366 17.289V17.289V17.2889V17.2885L29.1366 17.286L29.1368 17.2747C29.1369 17.2644 29.1373 17.2487 29.138 17.228C29.1394 17.1866 29.1425 17.1251 29.1488 17.0464C29.1613 16.8889 29.1869 16.6628 29.2388 16.3914C29.3426 15.8481 29.5514 15.1264 29.9701 14.4094C30.8015 12.9854 32.4742 11.5549 35.8774 11.6061C37.5772 11.6317 38.7901 12.1072 39.6578 12.796C40.5269 13.4859 41.0608 14.3987 41.3856 15.3161C41.7106 16.234 41.8245 17.1511 41.8567 17.8406C41.8727 18.1849 41.8683 18.4713 41.86 18.6712C41.8558 18.771 41.8506 18.8492 41.8465 18.9021C41.8445 18.9285 41.8427 18.9486 41.8415 18.9619L41.8401 18.9768L41.8397 18.9803L41.8396 18.981L41.8396 18.9811L41.8396 18.9811L41.8226 19.1383L41.9806 19.1439L22.9396 16.9151Z" fill="#FFFAF5" stroke="#C85100" stroke-width="0.294059"/>
<path d="M26.6792 84.5465L31.7952 71.6365L42.5222 75.801L35.5084 92.4591H31.7952L26.6792 84.5465Z" fill="#FCBACB"/>
<path d="M81.6759 84.5257L76.56 71.6365L65.8329 75.801L72.8468 92.4591H76.56L81.6759 84.5257Z" fill="#FCBACB"/>
<path d="M34.6833 92.459L39.0154 78.2996L28.9072 73.5104C28.9072 73.5104 29.6911 72.3443 31.0732 70.6577C33.8169 67.3469 38.8916 62.0371 44.7708 59.9757C53.6412 56.8523 60.8614 59.1428 66.2249 61.4333C69.8143 62.9533 79.6337 74.3433 79.6337 74.3433L69.3192 78.2996L73.6719 92.459H34.6833Z" fill="#C85100"/>
<path d="M57.5606 50.8137C57.5606 50.8137 61.2738 48.5232 61.0675 43.5257C60.9231 39.9651 57.9732 37.0707 54.4663 37.6954C49.9692 38.5075 45.1833 39.9859 43.5329 43.5257C42.3777 46.0036 43.5123 50.9386 46.2147 52.8959C50.5468 56.0193 51.9908 54.1453 51.9908 54.1453L57.5606 50.8137Z" fill="#1F1F39"/>
<path d="M48.6903 48.5231C48.6903 48.5231 47.2463 47.0655 45.596 48.1066C43.9457 49.1478 45.1834 51.8547 46.6274 52.4794C48.0715 53.1041 48.6903 52.8958 48.6903 52.8958V59.9755C48.6903 59.9755 50.7532 61.0167 53.0224 60.8084C55.2916 60.6002 56.7356 59.7673 56.7356 59.7673L56.1167 54.7699C56.1167 54.7699 59.0048 53.5205 59.0048 50.3971C59.0048 47.2737 58.3859 45.6079 58.3859 45.6079L50.1344 47.2737C50.1344 47.2737 50.3406 48.1066 50.1344 49.356C49.9281 50.6053 49.5155 51.0218 49.5155 51.0218C49.5155 51.0218 49.7218 49.1478 48.6903 48.5231Z" fill="#F9D2DD"/>
<path d="M39.0153 78.4039C38.9946 78.4039 38.9946 78.4039 38.974 78.4039C38.9121 78.3831 38.8915 78.3206 38.9121 78.2789L42.0065 69.7417C42.0271 69.6792 42.089 69.6584 42.1302 69.6792C42.1921 69.7 42.2128 69.7625 42.1921 69.8041L39.0978 78.3414C39.0978 78.3831 39.0565 78.4039 39.0153 78.4039Z" fill="#DADAF7"/>
<path d="M35.7148 85.4416C35.7148 85.4416 32.1047 77.7997 30.4544 75.0095C29.2785 73.0105 25.1321 63.2447 25.1321 63.2447C25.1321 63.2447 24.0594 59.2676 21.7284 58.7262C19.3973 58.1848 18.8609 57.6434 17.9739 57.102C17.0869 56.5606 16.1792 56.3732 15.6428 56.9146C15.1065 57.456 15.1065 58.1848 15.4572 58.8928C15.8079 59.6215 16.3442 59.9755 16.3442 59.9755C16.3442 59.9755 9.18599 59.7881 8.29895 60.5169C7.41191 61.2457 6.87556 63.2239 10.2587 64.3066C13.2911 65.2645 17.025 65.2228 17.8089 65.202C17.9739 65.556 22.8836 83.2969 24.3689 87.2324C25.8748 91.1679 28.866 92.6879 31.3414 92.4589C33.8582 92.2506 36.9319 90.3558 35.7148 85.4416Z" fill="#F9D2DD"/>
<path d="M69.3398 78.4039C69.2986 78.4039 69.2573 78.3831 69.2367 78.3414L66.1424 69.8041C66.1217 69.7417 66.1424 69.7 66.2043 69.6792C66.2661 69.6584 66.3074 69.6792 66.328 69.7417L69.4224 78.2789C69.443 78.3414 69.4224 78.3831 69.3605 78.4039H69.3398Z" fill="#DADAF7"/>
<path d="M72.6197 85.4207C72.6197 85.4207 76.2092 77.7788 77.8595 74.9677C79.0353 72.9688 83.1817 63.2029 83.1817 63.2029C83.1817 63.2029 84.2544 59.2258 86.5855 58.6844C88.9166 58.143 89.4529 57.6016 90.34 57.0603C91.227 56.5189 92.1347 56.3315 92.671 56.8729C93.2074 57.4142 93.2074 58.143 92.8567 58.851C92.506 59.5798 91.9696 59.9338 91.9696 59.9338C91.9696 59.9338 99.1279 59.7464 100.015 60.4752C100.902 61.204 101.438 63.1821 98.0552 64.2649C95.0227 65.2227 91.2889 65.2019 90.505 65.1811C90.34 65.5351 85.4509 83.276 83.945 87.2115C82.4391 91.1469 79.4479 92.667 76.9724 92.4379C74.497 92.2297 71.4233 90.3349 72.6197 85.4207Z" fill="#F9D2DD"/>
<path d="M9.72231 64.2233H9.70168C9.08281 64.0359 8.69086 63.557 8.60835 62.9532C8.52583 62.2452 8.87652 61.5164 9.45413 61.1624C10.5062 60.5377 19.9336 60.8084 20.3462 60.8292C20.4081 60.8292 20.4493 60.8709 20.4493 60.9334C20.4493 60.9958 20.3874 61.0375 20.3462 61.0375C16.963 60.9334 10.3618 60.8501 9.5779 61.329C9.06218 61.6413 8.75275 62.3076 8.81464 62.9115C8.85589 63.2238 9.02092 63.7861 9.76356 64.0151C9.82545 64.0359 9.84608 64.0984 9.82545 64.14C9.80482 64.2025 9.76357 64.2233 9.72231 64.2233Z" fill="white"/>
<path d="M11.3313 64.6816H11.3107C10.9187 64.5567 10.6712 64.2652 10.6299 63.8696C10.5681 63.4323 10.795 62.9742 11.1663 62.7451C11.7852 62.3703 17.1074 62.5161 17.7263 62.5369C17.7882 62.5369 17.8294 62.5786 17.8294 62.641C17.8294 62.7035 17.7675 62.7451 17.7263 62.7451C15.3746 62.6619 11.7233 62.6619 11.2901 62.9117C11.0013 63.0991 10.8156 63.4739 10.8569 63.8279C10.8775 64.0153 10.9806 64.3277 11.3932 64.4526C11.4551 64.4734 11.4757 64.5359 11.4551 64.5775C11.4138 64.6608 11.3726 64.6816 11.3313 64.6816Z" fill="white"/>
<path d="M20.0161 60.309L16.3029 60.1008C16.241 60.1008 16.1997 60.0383 16.1997 59.9967C16.1997 59.9342 16.241 59.8926 16.3029 59.8926L19.9954 60.1008C20.0573 60.1008 20.0986 60.1633 20.0986 60.2049C20.1192 60.2466 20.078 60.309 20.0161 60.309Z" fill="white"/>
<path d="M98.5089 64.2027C98.4677 64.2027 98.4264 64.1819 98.4058 64.1194C98.3851 64.057 98.4264 64.0153 98.4676 63.9945C99.2103 63.7655 99.3753 63.2032 99.4166 62.8909C99.4991 62.2662 99.1897 61.6207 98.6533 61.3084C97.8488 60.8295 91.2475 60.9127 87.885 61.0169C87.8231 61.0169 87.7819 60.9752 87.7819 60.9127C87.7819 60.8503 87.8231 60.8086 87.885 60.8086C88.277 60.7878 97.725 60.4963 98.7771 61.1418C99.3547 61.4958 99.7054 62.2246 99.6229 62.9325C99.5404 63.5572 99.1484 64.0153 98.5295 64.2027C98.5295 64.2027 98.5295 64.2027 98.5089 64.2027Z" fill="white"/>
<path d="M96.9 64.661C96.8588 64.661 96.8175 64.6402 96.7969 64.5777C96.7762 64.5152 96.8175 64.4736 96.8588 64.4528C97.2713 64.3278 97.3745 63.9947 97.3951 63.8281C97.4364 63.4741 97.2507 63.0993 96.9619 62.9119C96.5287 62.6412 92.8774 62.662 90.5257 62.7453C90.4638 62.7453 90.4225 62.7037 90.4225 62.6412C90.4225 62.5787 90.4638 62.5371 90.5257 62.5371C91.1239 62.5163 96.4462 62.3497 97.0857 62.7453C97.457 62.9744 97.6633 63.4325 97.622 63.8697C97.5808 64.2654 97.3332 64.5569 96.9413 64.6818C96.9206 64.661 96.9206 64.661 96.9 64.661Z" fill="white"/>
<path d="M88.2153 60.2673C88.1534 60.2673 88.1122 60.2256 88.1122 60.1632C88.1122 60.1007 88.1534 60.0591 88.2153 60.0591L91.9079 59.8508C91.9698 59.8508 92.011 59.8925 92.011 59.9549C92.011 60.0174 91.9698 60.0591 91.9079 60.0591L88.2153 60.2673Z" fill="white"/>
<path d="M56.1165 54.77C56.1165 54.77 56.199 54.7284 56.3434 54.6659C56.2815 54.6867 56.2403 54.7076 56.1784 54.7284C53.4966 55.7695 51.1037 54.6243 51.1037 54.6243C52.6508 56.4775 54.7137 57.352 56.4878 57.7685L56.1165 54.77Z" fill="#F9ACC0"/>
</svg>
