<svg width="138" height="138" viewBox="0 0 138 138" fill="none" xmlns="http://www.w3.org/2000/svg">
<path d="M66.1485 112.667H39.7313C21.379 112.667 16.7266 108.117 16.7266 89.9718V47.4771C16.7266 31.0376 20.552 25.7645 34.9753 24.9374C36.4228 24.8857 38.0253 24.834 39.7313 24.834H97.1665C115.519 24.834 120.171 29.3833 120.171 47.5288V70.327" fill="#FFF1E7"/>
<path d="M65.9063 117.277H36.7152C16.4359 117.277 11.2949 112.25 11.2949 92.199V45.2424C11.2949 27.0767 15.522 21.25 31.4598 20.336C33.0593 20.2788 34.8301 20.2217 36.7152 20.2217H100.181C120.46 20.2217 125.601 25.2487 125.601 45.2995V70.4916" stroke="#C85100" stroke-width="0.678711" stroke-linecap="round" stroke-linejoin="round"/>
<path d="M16.7393 57.0117L119.903 57.0117" stroke="#C85100" stroke-width="0.678711" stroke-miterlimit="10" stroke-linecap="round" stroke-linejoin="round"/>
<path d="M102.695 125.847C115.314 125.847 125.545 115.617 125.545 102.997C125.545 90.3777 115.314 80.1475 102.695 80.1475C90.075 80.1475 79.8447 90.3777 79.8447 102.997C79.8447 115.617 90.075 125.847 102.695 125.847Z" fill="#FFF1E7" stroke="#C85100" stroke-width="0.678711" stroke-miterlimit="10" stroke-linecap="round" stroke-linejoin="round"/>
<path d="M108.812 109.396L96.7588 97.2852" stroke="#C85100" stroke-width="4.07227" stroke-miterlimit="10" stroke-linecap="round" stroke-linejoin="round"/>
<path d="M108.691 97.4546L96.5801 109.508" stroke="#C85100" stroke-width="4.07227" stroke-miterlimit="10" stroke-linecap="round" stroke-linejoin="round"/>
<path d="M34.1445 91.5732H56.9945" stroke="#C85100" stroke-width="8.56873" stroke-miterlimit="10" stroke-linecap="round" stroke-linejoin="round"/>
</svg>
