<svg width="102" height="100" viewBox="0 0 102 100" fill="none" xmlns="http://www.w3.org/2000/svg">
<g clip-path="url(#clip0_530_7611)">
<path d="M64.5657 22.0849H37.4582C36.8405 22.0857 36.2483 22.3314 35.8115 22.7682C35.3747 23.205 35.129 23.7972 35.1282 24.415V84.6616L34.8175 84.7564L28.1676 86.7928C27.8525 86.8889 27.5121 86.856 27.2211 86.7014C26.9302 86.5468 26.7125 86.283 26.6159 85.968L6.83547 21.3564C6.73921 21.0412 6.77202 20.7008 6.92669 20.4098C7.08136 20.1188 7.34523 19.9011 7.66031 19.8046L17.9078 16.6668L47.6156 7.57353L57.863 4.43576C58.019 4.38777 58.1829 4.371 58.3453 4.38641C58.5077 4.40182 58.6655 4.44911 58.8097 4.52558C58.9538 4.60205 59.0815 4.70619 59.1853 4.83205C59.2892 4.9579 59.3671 5.103 59.4149 5.25904L64.471 21.7743L64.5657 22.0849Z" fill="#FFF1E7"/>
<path d="M70.4789 21.7726L64.3851 1.86801C64.2837 1.53636 64.1179 1.22794 63.8973 0.960374C63.6767 0.692805 63.4055 0.471334 63.0993 0.308614C62.793 0.145894 62.4577 0.0451135 62.1125 0.0120351C61.7672 -0.0210433 61.4189 0.0142287 61.0873 0.115832L46.68 4.52579L16.9738 13.6207L2.56644 18.0322C1.89716 18.2377 1.33675 18.7004 1.00824 19.3186C0.679728 19.9369 0.609947 20.6603 0.814218 21.3299L21.6415 89.3558C21.8075 89.8964 22.1423 90.3695 22.5969 90.7058C23.0515 91.0422 23.6019 91.2239 24.1673 91.2245C24.4291 91.2246 24.6893 91.1853 24.9393 91.108L34.8155 88.0852L35.1262 87.9889V87.6642L34.8155 87.7589L24.8477 90.8113C24.2569 90.9914 23.6188 90.9298 23.0734 90.64C22.528 90.3503 22.1198 89.856 21.9383 89.2657L1.11252 21.2383C1.0226 20.9458 0.991259 20.6384 1.02029 20.3338C1.04933 20.0291 1.13817 19.7332 1.28174 19.463C1.4253 19.1927 1.62077 18.9534 1.85694 18.7588C2.09311 18.5642 2.36535 18.4181 2.65806 18.3289L17.0654 13.9174L46.7717 4.82404L61.179 0.412525C61.401 0.344767 61.6319 0.310219 61.864 0.310003C62.3622 0.311122 62.8469 0.471731 63.2472 0.768307C63.6475 1.06488 63.9423 1.48184 64.0884 1.95811L70.1542 21.7726L70.2506 22.0833H70.5737L70.4789 21.7726Z" fill="#C85100"/>
<path d="M19.7571 19.8553C19.4577 19.8551 19.1663 19.7589 18.9255 19.5809C18.6848 19.4029 18.5074 19.1525 18.4195 18.8663L16.4187 12.3311C16.3649 12.1555 16.3463 11.9711 16.3638 11.7884C16.3813 11.6056 16.4347 11.4281 16.5208 11.266C16.6069 11.1038 16.7242 10.9602 16.8658 10.8434C17.0074 10.7266 17.1707 10.6388 17.3462 10.5851L44.6757 2.21816C45.0303 2.10997 45.4132 2.14687 45.7406 2.32075C46.0679 2.49463 46.3129 2.79129 46.4218 3.14562L48.4226 9.68091C48.5307 10.0354 48.4938 10.4184 48.3199 10.7457C48.146 11.0731 47.8494 11.3181 47.4951 11.427L20.1656 19.7939C20.0332 19.8345 19.8956 19.8552 19.7571 19.8553Z" fill="#C85100"/>
<path d="M30.2376 6.98293C31.9533 6.98293 33.3443 5.59201 33.3443 3.87623C33.3443 2.16045 31.9533 0.769531 30.2376 0.769531C28.5218 0.769531 27.1309 2.16045 27.1309 3.87623C27.1309 5.59201 28.5218 6.98293 30.2376 6.98293Z" fill="#C85100"/>
<path d="M30.2378 5.8437C31.3243 5.8437 32.205 4.96293 32.205 3.87644C32.205 2.78995 31.3243 1.90918 30.2378 1.90918C29.1513 1.90918 28.2705 2.78995 28.2705 3.87644C28.2705 4.96293 29.1513 5.8437 30.2378 5.8437Z" fill="white"/>
<path d="M94.3099 90.4322H41.8067C41.4566 90.4318 41.121 90.2926 40.8735 90.0451C40.626 89.7975 40.4867 89.4619 40.4863 89.1119V26.2012C40.4867 25.8511 40.626 25.5155 40.8735 25.268C41.121 25.0205 41.4566 24.8813 41.8067 24.8809H94.3099C94.66 24.8813 94.9956 25.0205 95.2431 25.268C95.4906 25.5156 95.6298 25.8512 95.6303 26.2012V89.1119C95.6298 89.4619 95.4906 89.7975 95.2431 90.0451C94.9955 90.2926 94.66 90.4318 94.3099 90.4322Z" fill="#FFF1E7"/>
<path d="M70.2127 21.7471H37.5147C36.8147 21.7481 36.1436 22.0266 35.6486 22.5216C35.1535 23.0166 34.875 23.6877 34.874 24.3878V87.7334L35.1847 87.6386V24.3878C35.1854 23.77 35.4312 23.1778 35.868 22.741C36.3048 22.3042 36.897 22.0585 37.5147 22.0577H70.3091L70.2127 21.7471ZM98.7167 21.7471H37.5147C36.8147 21.7481 36.1436 22.0266 35.6486 22.5216C35.1535 23.0166 34.875 23.6877 34.874 24.3878V95.5312C34.875 96.2313 35.1535 96.9024 35.6486 97.3974C36.1436 97.8924 36.8147 98.1709 37.5147 98.1719H98.7167C99.4168 98.1709 100.088 97.8924 100.583 97.3974C101.078 96.9024 101.356 96.2313 101.357 95.5312V24.3878C101.356 23.6877 101.078 23.0166 100.583 22.5216C100.088 22.0266 99.4168 21.7481 98.7167 21.7471ZM101.047 95.5312C101.046 96.1489 100.8 96.7411 100.363 97.1779C99.9267 97.6147 99.3344 97.8605 98.7167 97.8612H37.5147C36.897 97.8605 36.3048 97.6147 35.868 97.1779C35.4312 96.7411 35.1854 96.1489 35.1847 95.5312V24.3878C35.1854 23.77 35.4312 23.1778 35.868 22.741C36.3048 22.3042 36.897 22.0585 37.5147 22.0577H98.7167C99.3344 22.0585 99.9267 22.3042 100.363 22.741C100.8 23.1778 101.046 23.77 101.047 24.3878V95.5312Z" fill="#C85100"/>
<path d="M82.3507 28.6083H53.7691C53.3985 28.6079 53.0431 28.4605 52.781 28.1984C52.5189 27.9363 52.3715 27.5809 52.3711 27.2103V20.3756C52.3715 20.0049 52.5189 19.6496 52.781 19.3875C53.0431 19.1254 53.3985 18.978 53.7691 18.9775H82.3507C82.7214 18.978 83.0767 19.1254 83.3388 19.3875C83.6009 19.6496 83.7483 20.0049 83.7488 20.3756V27.2103C83.7483 27.5809 83.6009 27.9363 83.3388 28.1984C83.0768 28.4605 82.7214 28.6079 82.3507 28.6083Z" fill="#C85100"/>
<path d="M68.0588 19.4439C69.7746 19.4439 71.1655 18.053 71.1655 16.3372C71.1655 14.6214 69.7746 13.2305 68.0588 13.2305C66.3431 13.2305 64.9521 14.6214 64.9521 16.3372C64.9521 18.053 66.3431 19.4439 68.0588 19.4439Z" fill="#C85100"/>
<path d="M68.0593 18.2294C69.1043 18.2294 69.9515 17.3822 69.9515 16.3371C69.9515 15.292 69.1043 14.4448 68.0593 14.4448C67.0142 14.4448 66.167 15.292 66.167 16.3371C66.167 17.3822 67.0142 18.2294 68.0593 18.2294Z" fill="white"/>
</g>
<defs>
<clipPath id="clip0_530_7611">
<rect width="101" height="100" fill="white" transform="translate(0.5)"/>
</clipPath>
</defs>
</svg>
