<svg width="26" height="27" viewBox="0 0 26 27" fill="none" xmlns="http://www.w3.org/2000/svg">
<path d="M1.09854 12.4665C1.09854 12.4665 0.217064 11.1817 1.50267 10.301C2.78673 9.42032 3.66742 10.7044 3.66742 10.7044L7.7563 16.6676C7.89724 16.4324 8.05142 16.2003 8.22351 15.9714L2.54845 7.69631C2.54845 7.69631 1.66776 6.41226 2.95259 5.53156C4.23664 4.65087 5.11734 5.93492 5.11734 5.93492L10.4552 13.7194C10.6538 13.5575 10.857 13.3947 11.0665 13.2351L4.87828 4.20935C4.87828 4.20935 3.99758 2.9253 5.28242 2.04461C6.56647 1.16391 7.44716 2.44797 7.44716 2.44797L13.6354 11.4722C13.8628 11.3328 14.0878 11.2121 14.3136 11.0844L8.52954 2.64965C8.52954 2.64965 7.64884 1.36559 8.9329 0.484899C10.217 -0.395795 11.0976 0.888258 11.0976 0.888258L17.2134 9.80733L18.1432 11.1638C14.2903 13.8067 13.9235 18.7786 16.1248 21.9891C16.5648 22.6315 17.2072 22.1916 17.2072 22.1916C14.5651 18.3378 15.3719 14.0076 19.2256 11.3655L18.0895 5.67951C18.0895 5.67951 17.6651 4.18132 19.1625 3.75616C20.6607 3.33177 21.0859 4.82997 21.0859 4.82997L22.3979 8.72651C22.9181 10.2714 23.4717 11.8109 24.2045 13.267C26.2735 17.3785 25.0377 22.4882 21.1365 25.1646C16.8809 28.0823 11.0634 26.9976 8.14487 22.7429L1.09854 12.4665Z" fill="#AF7E57"/>
</svg>
